<?xml version="1.0" encoding="UTF-8"?>
<svg xmlns="http://www.w3.org/2000/svg" viewBox="0 0 2000 2000">
  <rect width="2000" height="2000" rx="360" fill="#111827"/>
  <g fill="#ffffff">
    <path d="M990.73,641.85v348.08h-295.12v-348.08c81.5,0,147.56,66.06,147.56,147.55,0-40.74,16.52-77.63,43.22-104.33,26.7-26.7,63.6-43.22,104.34-43.22Z"/>
    <path d="M1156.83,641.84h0c81.44,0,147.56,66.12,147.56,147.56v200.53h-295.12v-200.53c0-81.44,66.12-147.56,147.56-147.56Z"/>
    <path d="M990.73,1010.07v348.08c-40.74,0-77.64-16.52-104.34-43.22-26.7-26.7-43.22-63.59-43.22-104.34,0,40.75-16.52,77.64-43.22,104.34-26.7,26.7-63.6,43.22-104.34,43.22v-348.08c81.5,0,147.56,66.06,147.56,147.55,0-40.74,16.52-77.63,43.22-104.33,26.7-26.7,63.6-43.22,104.34-43.22Z"/>
    <path d="M1156.83,1010.07h0c81.44,0,147.56,66.12,147.56,147.56v200.53h-295.12v-200.53c0-81.44,66.12-147.56,147.56-147.56Z"/>
  </g>
</svg>
